#!OML:ASF F:\VICON\USERDATA\INSTALL\rory3\rory3.ASF
:FULLY-SPECIFIED
:DEGREES
376
root 5.59878 17.8179 39.7235 -3.04011 -2.49408 1.0206
lowerback 10.9997 -0.242073 -2.52673
upperback 0.596463 -0.582551 0.943059
thorax -5.51426 -0.212437 2.50479
lowerneck -16.5225 -2.90947 -3.72102
upperneck 16.7798 -3.61986 2.81138
head 8.03885 -1.67682 1.12164
rclavicle 1.12065e-014 0
rhumerus -31.9202 -17.8901 -79.6749
rradius 27.0471
rwrist 4.12146
rhand -15.9157 23.0706
rfingers 7.12502
rthumb 10.2815 -6.6581
lclavicle 1.12065e-014 0
lhumerus -29.341 -1.20825 81.7135
lradius 25.2554
lwrist 9.27744
lhand -33.1057 13.1945
lfingers 7.12502
lthumb -6.31628 43.0803
rfemur -31.4943 -1.97809 22.3425
rtibia 59.0934
rfoot -10.2964 -9.55198
rtoes -6.22213
lfemur -0.799964 -2.25547 -26.0988
ltibia 26.2788
lfoot -17.6011 -0.150094
ltoes 0.934349
377
root 5.59457 17.8083 39.9011 -3.05089 -2.42111 1.22451
lowerback 10.9387 -0.29948 -2.70622
upperback 0.777471 -0.680747 0.897184
thorax -5.28207 -0.263154 2.57033
lowerneck -16.7775 -2.97627 -3.72493
upperneck 16.5796 -3.70445 2.85491
head 8.02074 -1.71049 1.12407
rclavicle -9.36773e-015 -1.55052e-014
rhumerus -31.8052 -17.6595 -79.9412
rradius 27.1474
rwrist 3.13964
rhand -15.6189 22.7375
rfingers 7.12502
rthumb 10.5677 -6.97682
lclavicle -9.36773e-015 -1.55052e-014
lhumerus -28.5572 -0.829563 81.2536
lradius 26.9782
lwrist 11.7219
lhand -28.7841 21.9205
lfingers 7.12502
lthumb -2.14317 51.8894
rfemur -31.6988 -1.9562 22.0855
rtibia 56.5967
rfoot -8.96118 -8.81047
rtoes -0.12452
lfemur 0.181921 -2.17647 -26.4174
ltibia 25.4891
lfoot -17.6827 0.120691
ltoes -0.741503
378
root 5.5861 17.7981 40.0775 -2.99211 -2.43588 1.69299
lowerback 10.9489 -0.297532 -3.302
upperback 0.727023 -0.753321 0.877963
thorax -5.32926 -0.283611 2.89888
lowerneck -16.7058 -2.94159 -3.73332
upperneck 16.4874 -3.64406 2.79993
head 7.97437 -1.68879 1.11531
rclavicle -5.73991e-015 7.95139e-015
rhumerus -32.1574 -17.3668 -79.8604
rradius 27.4196
rwrist 2.97037
rhand -15.7449 22.2332
rfingers 7.12502
rthumb 10.4463 -7.4873
lclavicle -5.73991e-015 7.95139e-015
lhumerus -28.6641 -1.43428 81.4938
lradius 26.7558
lwrist 7.5708
lhand -29.9491 16.8702
lfingers 7.12502
lthumb -3.26834 46.8249
rfemur -31.908 -1.74911 21.5587
rtibia 53.9162
rfoot -8.19711 -8.73231
rtoes 1.69673
lfemur 1.05651 -2.2791 -27.0451
ltibia 24.7443
lfoot -17.6233 0.531268
ltoes -0.61994
379
root 5.57205 17.7898 40.247 -2.80735 -2.59951 1.41623
lowerback 10.9876 -0.343776 -3.16032
upperback 0.543328 -0.790375 1.05535
thorax -5.54112 -0.296218 3.01388
lowerneck -16.4744 -2.85018 -3.70719
upperneck 16.4699 -3.51192 2.69046
head 7.9208 -1.63774 1.09291
rclavicle 4.34841e-015 -1.98785e-015
rhumerus -32.605 -17.246 -79.6003
rradius 27.5895
rwrist 3.69991
rhand -15.5778 21.7741
rfingers 7.12502
rthumb 10.6074 -7.93817
lclavicle 4.34841e-015 -1.98785e-015
lhumerus -28.5976 -1.58824 81.4215
lradius 27.7984
lwrist 7.46295
lhand -28.6611 20.0184
lfingers 7.12502
lthumb -2.02438 49.9886
rfemur -32.0902 -1.19044 21.8632
rtibia 51.0368
rfoot -7.55515 -9.11725
rtoes 1.70676
lfemur 1.90084 -2.13952 -26.8009
ltibia 23.9952
lfoot -17.6827 1.02573
ltoes -2.27474
380
root 5.55435 17.7848 40.4126 -2.52692 -2.71159 1.00793
lowerback 10.8524 -0.347835 -2.82687
upperback 0.472252 -0.742679 1.20159
thorax -5.54582 -0.278371 2.97019
lowerneck -16.3645 -2.89 -3.77411
upperneck 16.3985 -3.57162 2.78794
head 7.883 -1.66175 1.13043
rclavicle -7.42958e-015 1.55052e-014
rhumerus -32.812 -17.2435 -79.5071
rradius 27.5857
rwrist 3.96425
rhand -15.2783 21.614
rfingers 7.12502
rthumb 10.8963 -8.08331
lclavicle -7.42958e-015 1.55052e-014
lhumerus -28.1866 -2.39955 81.5308
lradius 28.3725
lwrist 8.37477
lhand -29.242 20.4426
lfingers 7.12502
lthumb -2.58546 50.4067
rfemur -32.3063 -0.543998 22.3129
rtibia 48.0219
rfoot -6.60427 -9.59541
rtoes 1.40316
lfemur 2.66472 -1.88618 -26.324
ltibia 23.2097
lfoot -17.8761 1.11006
ltoes -3.24401
381
root 5.54388 17.7788 40.5814 -2.32152 -2.64095 1.30567
lowerback 10.6401 -0.353358 -3.098
upperback 0.555848 -0.781486 1.1152
thorax -5.33375 -0.29715 3.03378
lowerneck -16.5566 -2.98688 -3.76058
upperneck 16.374 -3.71235 2.85111
head 7.9144 -1.71949 1.13045
rclavicle 2.28602e-015 -1.98785e-015
rhumerus -32.6714 -17.1654 -79.7034
rradius 27.4188
rwrist 3.31904
rhand -15.2773 21.8359
rfingers 7.12502
rthumb 10.8973 -7.86136
lclavicle 2.28602e-015 -1.98785e-015
lhumerus -27.58 -3.44804 81.6109
lradius 28.7068
lwrist 9.31217
lhand -29.2414 20.2643
lfingers 7.12502
lthumb -2.5848 50.2284
rfemur -32.4225 -0.181749 21.8858
rtibia 44.9031
rfoot -5.80598 -9.91459
rtoes 3.03628
lfemur 3.47057 -1.74577 -26.6363
ltibia 22.335
lfoot -18.0111 0.931183
ltoes -2.18709
382
root 5.53664 17.7746 40.759 -2.21253 -2.54194 1.5548
lowerback 10.4984 -0.412423 -3.2886
upperback 0.662396 -0.880346 1.06097
thorax -5.13299 -0.347748 3.09515
lowerneck -16.8995 -3.06178 -3.66634
upperneck 16.3538 -3.80896 2.76813
head 7.96744 -1.76423 1.07206
rclavicle -1.39398e-014 7.95139e-015
rhumerus -32.3181 -17.7177 -79.6746
rradius 26.9411
rwrist 3.49347
rhand -15.2868 21.4663
rfingers 7.12502
rthumb 10.8881 -8.23142
lclavicle -1.39398e-014 7.95139e-015
lhumerus -26.7759 -4.25338 81.4812
lradius 28.7907
lwrist 9.04733
lhand -27.8993 21.0391
lfingers 7.12502
lthumb -1.28862 51.015
rfemur -32.3133 0.0846036 21.4565
rtibia 41.7285
rfoot -4.98571 -10.2452
rtoes 4.61408
lfemur 4.57955 -1.52902 -26.8807
ltibia 21.1432
lfoot -17.7942 0.514145
ltoes -0.370471
383
root 5.52919 17.7718 40.9452 -2.07582 -2.47052 1.7848
lowerback 10.2065 -0.472837 -3.48066
upperback 0.738955 -0.974787 1.01667
thorax -4.87959 -0.39728 3.16394
lowerneck -17.1704 -3.00382 -3.36928
upperneck 16.4176 -3.7411 2.48482
head 8.02202 -1.73906 0.934248
rclavicle -2.16427e-014 -6.75868e-015
rhumerus -32.0885 -18.9014 -79.2576
rradius 26.3995
rwrist 5.05826
rhand -14.7745 20.8404
rfingers 7.12502
rthumb 11.3822 -8.83071
lclavicle -2.16427e-014 -6.75868e-015
lhumerus -26.0689 -4.54647 81.2988
lradius 28.9608
lwrist 8.40489
lhand -27.1802 22.5388
lfingers 7.12502
lthumb -0.594121 52.5177
rfemur -32.1259 0.528608 20.9939
rtibia 38.5018
rfoot -4.25253 -10.6236
rtoes 5.22745
lfemur 5.81636 -1.40665 -27.1385
ltibia 19.7246
lfoot -17.4563 0.0928032
ltoes 0.855073
384
root 5.51865 17.7652 41.1287 -1.81241 -2.4335 2.32738
lowerback 9.93043 -0.521508 -4.04721
upperback 0.677483 -1.10009 0.895293
thorax -4.77177 -0.449945 3.36933
lowerneck -17.203 -2.91105 -3.20387
upperneck 16.4486 -3.62709 2.33841
head 8.02838 -1.68904 0.871897
rclavicle -1.00386e-014 3.97569e-015
rhumerus -32.0908 -19.4282 -79.0019
rradius 25.8526
rwrist 5.87232
rhand -14.8658 21.8693
rfingers 7.12502
rthumb 11.2942 -7.80658
lclavicle -1.00386e-014 3.97569e-015
lhumerus -25.8444 -4.77331 81.1661
lradius 29.5687
lwrist 8.74166
lhand -27.2806 22.6803
lfingers 7.12502
lthumb -0.691072 52.6589
rfemur -32.1129 1.11117 20.1403
rtibia 35.2688
rfoot -3.79791 -10.9337
rtoes 4.51099
lfemur 6.93106 -1.54528 -27.7988
ltibia 18.2246
lfoot -17.0559 0.24913
ltoes -0.0515127
385
root 5.49898 17.7606 41.3141 -1.52439 -2.48732 2.51579
lowerback 9.83814 -0.561392 -4.3531
upperback 0.501656 -1.18693 0.883776
thorax -4.89145 -0.480162 3.54252
lowerneck -17.3507 -2.86847 -3.19574
upperneck 16.6471 -3.57832 2.37551
head 8.11979 -1.65998 0.886626
rclavicle 1.11319e-014 -2.78299e-015
rhumerus -32.2635 -19.3994 -78.957
rradius 25.1906
rwrist 5.27983
rhand -15.6759 24.404
rfingers 7.12502
rthumb 10.5128 -5.3131
lclavicle 1.11319e-014 -2.78299e-015
lhumerus -25.8571 -4.95857 81.0105
lradius 30.2106
lwrist 8.9565
lhand -27.5166 21.7598
lfingers 7.12502
lthumb -0.919036 51.7376
rfemur -32.0009 2.23581 19.5539
rtibia 32.0579
rfoot -4.0621 -11.6618
rtoes 4.1948
lfemur 8.03017 -1.29183 -27.9312
ltibia 16.7065
lfoot -16.857 0.179726
ltoes -2.18453
386
root 5.48519 17.7487 41.5064 -1.45624 -2.38461 2.74087
lowerback 9.74246 -0.644413 -4.66118
upperback 0.466123 -1.32756 0.887697
thorax -4.8554 -0.543069 3.73799
lowerneck -17.6744 -2.8988 -3.22027
upperneck 17.0068 -3.62575 2.44359
head 8.30075 -1.67328 0.903
rclavicle -3.23274e-014 1.03368e-014
rhumerus -32.4337 -19.4041 -78.8556
rradius 24.823
rwrist 4.84373
rhand -16.0296 27.1489
rfingers 7.12502
rthumb 10.1716 -2.58526
lclavicle -3.23274e-014 1.03368e-014
lhumerus -25.717 -4.97291 80.9212
lradius 30.7668
lwrist 9.0379
lhand -27.3195 21.9346
lfingers 7.12502
lthumb -0.728712 51.9131
rfemur -31.5929 3.08494 18.894
rtibia 28.9785
rfoot -4.53879 -12.2126
rtoes 4.23262
lfemur 9.39559 -0.949731 -28.0516
ltibia 15.2552
lfoot -16.6326 -0.424754
ltoes -2.52167
387
root 5.46971 17.7374 41.6968 -1.40003 -2.21196 3.04794
lowerback 9.55044 -0.716986 -4.98244
upperback 0.480896 -1.45271 0.817087
thorax -4.71418 -0.603051 3.8566
lowerneck -17.6783 -2.96671 -3.24695
upperneck 17.0671 -3.72834 2.51517
head 8.32688 -1.71585 0.918365
rclavicle -4.34841e-015 3.97569e-015
rhumerus -32.6858 -19.3145 -78.877
rradius 24.9492
rwrist 4.40759
rhand -15.8265 27.5609
rfingers 7.12502
rthumb 10.3675 -2.16355
lclavicle -4.34841e-015 3.97569e-015
lhumerus -25.4908 -5.0473 80.7715
lradius 31.2253
lwrist 9.03486
lhand -27.745 22.3498
lfingers 7.12502
lthumb -1.13963 52.3265
rfemur -31.1724 4.00697 18.0868
rtibia 25.9648
rfoot -5.97528 -13.119
rtoes -2.2131
lfemur 10.6545 -0.687124 -28.2546
ltibia 13.9984
lfoot -16.5208 -0.933623
ltoes -3.42462
388
root 5.45389 17.7274 41.8757 -1.23551 -2.00636 3.14591
lowerback 9.48513 -0.801277 -5.0707
upperback 0.451422 -1.57078 0.831557
thorax -4.69375 -0.659392 3.93558
lowerneck -17.5899 -2.96554 -3.25237
upperneck 16.992 -3.71092 2.4414
head 8.28407 -1.71668 0.89789
rclavicle -3.57812e-015 1.19271e-015
rhumerus -32.7849 -19.9177 -78.521
rradius 24.5893
rwrist 5.10678
rhand -15.8675 26.2192
rfingers 7.12502
rthumb 10.328 -3.5072
lclavicle -3.57812e-015 1.19271e-015
lhumerus -25.2099 -5.38176 80.7994
lradius 31.5345
lwrist 9.654
lhand -28.875 22.4814
lfingers 7.12502
lthumb -2.23097 52.4495
rfemur -30.8681 5.21095 17.3307
rtibia 23.0709
rfoot -6.51142 -13.702
rtoes -2.99996
lfemur 11.6016 -0.603313 -28.2335
ltibia 13.0335
lfoot -16.3671 -1.28458
ltoes -5.0585
